<svg width="68" height="24" viewBox="0 0 68 24" fill="none" xmlns="http://www.w3.org/2000/svg">
<g clip-path="url(#clip0_5984_470866)">
<path d="M55.7485 23.5343C55.648 23.5343 55.5664 23.4528 55.5664 23.3522V1.41144C55.5664 1.32516 55.627 1.25072 55.7114 1.23313L59.5145 0.441389C59.6276 0.417845 59.7338 0.504179 59.7338 0.619696V23.3522C59.7338 23.4528 59.6522 23.5343 59.5517 23.5343H55.7485Z" fill="#15357A"/>
<path d="M7.94405 23.9945C6.4247 23.9945 5.06813 23.623 3.87435 22.8799C2.68058 22.1368 1.73641 21.1205 1.04184 19.831C0.347281 18.5416 0 17.0773 0 15.4381C0 13.799 0.347281 12.3456 1.04184 11.078C1.73641 9.78852 2.68058 8.78317 3.87435 8.06194C5.06813 7.31886 6.4247 6.94732 7.94405 6.94732C9.15954 6.94732 10.2231 7.1768 11.1347 7.63576C11.8654 8.00365 12.4846 8.49089 12.9921 9.09748C13.1072 9.23505 13.3486 9.15724 13.3486 8.97787V1.01301C13.3486 0.926723 13.4092 0.852282 13.4936 0.834697L17.2967 0.0429517C17.4098 0.0194078 17.516 0.105741 17.516 0.221258V23.419C17.516 23.5196 17.4344 23.6011 17.3339 23.6011H13.9543C13.8673 23.6011 13.7923 23.5394 13.7756 23.454L13.4293 21.6854C13.3986 21.529 13.1934 21.4826 13.0917 21.6052C12.6064 22.1907 11.9975 22.7139 11.2649 23.1749C10.4184 23.7213 9.31147 23.9945 7.94405 23.9945ZM8.82311 20.3228C10.1688 20.3228 11.2649 19.8748 12.1114 18.9787C12.9796 18.0608 13.4137 16.8915 13.4137 15.4709C13.4137 14.0503 12.9796 12.892 12.1114 11.9959C11.2649 11.078 10.1688 10.619 8.82311 10.619C7.4991 10.619 6.40299 11.067 5.53479 11.9631C4.66659 12.8592 4.23249 14.0175 4.23249 15.4381C4.23249 16.8587 4.66659 18.028 5.53479 18.9459C6.40299 19.8638 7.4991 20.3228 8.82311 20.3228Z" fill="#15357A"/>
<path d="M27.6759 24.0003C26.0481 24.0003 24.6047 23.6506 23.3458 22.9512C22.0869 22.2519 21.0993 21.2684 20.383 20.0008C19.6668 18.7332 19.3086 17.2688 19.3086 15.6078C19.3086 13.925 19.6559 12.4279 20.3505 11.1166C21.0668 9.80526 22.0435 8.78898 23.2807 8.06775C24.5396 7.32467 26.0155 6.95312 27.7085 6.95312C29.293 6.95312 30.693 7.30281 31.9084 8.00218C33.1239 8.70155 34.0681 9.6632 34.7409 10.8871C35.4355 12.0891 35.7828 13.4332 35.7828 14.9194C35.7828 15.1598 35.7719 15.4111 35.7502 15.6734C35.7502 15.8835 35.7433 16.1005 35.7293 16.3246C35.7234 16.4197 35.6441 16.493 35.5489 16.493H23.6385C23.533 16.493 23.4493 16.5825 23.4597 16.6875C23.5761 17.8627 24.0048 18.7923 24.7458 19.4762C25.5489 20.1975 26.5147 20.5581 27.6434 20.5581C28.4899 20.5581 29.1953 20.3723 29.7596 20.0008C30.3118 19.6301 30.729 19.1625 31.0115 18.5978C31.0432 18.5343 31.1075 18.4928 31.1785 18.4928H35.0506C35.1723 18.4928 35.2598 18.6099 35.2216 18.7254C34.9118 19.6623 34.4261 20.5245 33.7642 21.3121C33.0697 22.1426 32.2015 22.7983 31.1596 23.2791C30.1395 23.7599 28.9783 24.0003 27.6759 24.0003ZM27.7085 10.3626C26.6884 10.3626 25.7876 10.6576 25.0062 11.2477C24.2729 11.781 23.7881 12.5837 23.5518 13.656C23.5274 13.7671 23.6135 13.8703 23.7273 13.8703H31.3568C31.4617 13.8703 31.5453 13.7818 31.5348 13.6774C31.4365 12.6966 31.0509 11.9085 30.3782 11.3133C29.662 10.6795 28.7721 10.3626 27.7085 10.3626Z" fill="#15357A"/>
<path d="M45.8087 24.0003C44.1808 24.0003 42.7374 23.6506 41.4785 22.9513C40.2196 22.2519 39.232 21.2684 38.5158 20.0008C37.7995 18.7332 37.4414 17.2689 37.4414 15.6078C37.4414 13.925 37.7886 12.4279 38.4832 11.1166C39.1995 9.80525 40.1762 8.78898 41.4134 8.06775C42.6723 7.32467 44.1482 6.95312 45.8412 6.95312C47.4257 6.95312 48.8257 7.30281 50.0411 8.00218C51.2566 8.70155 52.2008 9.6632 52.8737 10.8871C53.5682 12.0891 53.9155 13.4332 53.9155 14.9194C53.9155 15.1598 53.9046 15.4111 53.8829 15.6734C53.8829 15.8835 53.876 16.1006 53.8621 16.3246C53.8561 16.4197 53.7768 16.493 53.6816 16.493H41.7712C41.6657 16.493 41.582 16.5825 41.5924 16.6875C41.7088 17.8627 42.1375 18.7923 42.8785 19.4762C43.6816 20.1975 44.6474 20.5581 45.7761 20.5581C46.6226 20.5581 47.328 20.3723 47.8923 20.0008C48.4445 19.6301 48.8618 19.1625 49.1442 18.5978C49.1759 18.5343 49.2402 18.4928 49.3112 18.4928H53.1833C53.305 18.4928 53.3925 18.6099 53.3543 18.7254C53.0445 19.6623 52.5588 20.5245 51.8969 21.3121C51.2024 22.1426 50.3342 22.7983 49.2923 23.2791C48.2722 23.7599 47.111 24.0003 45.8087 24.0003ZM45.8412 10.3626C44.8211 10.3626 43.9203 10.6576 43.1389 11.2477C42.4056 11.781 41.9208 12.5837 41.6845 13.656C41.6601 13.7671 41.7462 13.8703 41.86 13.8703H49.4895C49.5944 13.8703 49.678 13.7818 49.6675 13.6774C49.5692 12.6966 49.1837 11.9085 48.5109 11.3133C47.7947 10.6795 46.9048 10.3626 45.8412 10.3626Z" fill="#15357A"/>
<path d="M65.1963 23.5409C66.7459 23.5409 68.002 22.276 68.002 20.7157C68.002 19.1555 66.7459 17.8906 65.1963 17.8906C63.6468 17.8906 62.3906 19.1555 62.3906 20.7157C62.3906 22.276 63.6468 23.5409 65.1963 23.5409Z" fill="#15357A"/>
</g>
<defs>
<clipPath id="clip0_5984_470866">
<rect width="68" height="24" fill="white"/>
</clipPath>
</defs>
</svg>
